<svg version="1.1" viewBox="0 0 475.9 291.9" xmlns="http://www.w3.org/2000/svg"><rect width="475.9" height="291.9" fill="#fff" stroke-linecap="round"/><g class="staffline" transform="translate(19.99 6.72)"><g class="vf-measure"><g fill="none" stroke="#000"><path d="m50 164h248"/><path d="m50 174h248"/><path d="m50 184h248"/><path d="m50 194h248"/><path d="m50 204h248"/></g><rect x="298" y="163.5" width="1" height="41" stroke="#000" stroke-width=".3"/><g class="vf-clef"><path d="m55 194m14.05-43.17c0.0576-0.0288 0.1152-0.0288 0.2016-0.0288 0.3456 0 0.7488 0.288 1.325 1.008 2.333 2.678 3.974 7.344 3.974 11.15 0 0.288-0.0576 0.5184-0.0576 0.8064-0.2592 4.522-2.102 8.237-5.76 11.75l-0.9792 0.9504-0.3456 0.3744v0.1152l0.2016 0.864 0.3168 1.555 0.3168 1.44c0.432 1.958 0.6048 2.966 0.6048 2.966s0.1152 0 0.2592-0.0288c0.144 0 0.6048-0.0576 1.094-0.0576 0.3456 0 0.6912 0.0576 0.864 0.0576 4.061 0.5184 7.2 3.427 8.093 7.517 0.1728 0.6624 0.2304 1.382 0.2304 2.102 0 3.888-2.333 7.603-6.221 9.36-0.2304 0.144-0.3168 0.1728-0.3168 0.1728v0.0288s0.1728 0.6624 0.3168 1.411l0.432 2.189 0.4032 1.757c0.2304 1.123 0.3456 1.93 0.3456 2.65 0 0.6336-0.0864 1.21-0.2304 1.872-0.9792 4.003-4.464 6.394-8.093 6.394-1.786 0-3.629-0.576-5.242-1.872-1.44-1.21-2.074-2.304-2.074-3.744 0-2.534 2.045-4.32 4.176-4.32 0.7488 0 1.498 0.2304 2.218 0.6624 1.21 0.8352 1.757 2.102 1.757 3.341 0 1.901-1.325 3.773-3.6 3.917h-0.2304l0.1728 0.1152c0.9504 0.4032 1.901 0.6048 2.822 0.6048 2.333 0 4.522-1.181 5.846-3.226 0.7488-1.152 1.152-2.506 1.152-3.859 0-0.5184-0.0864-1.037-0.2016-1.613 0-0.0576-0.0864-0.5184-0.2016-0.9504-0.6336-3.11-1.008-4.925-1.008-4.925-0.0576 0-0.1728 0-0.2592 0.0576-0.288 0.0576-0.8928 0.2016-1.152 0.2304-0.6336 0.0864-1.238 0.1152-1.814 0.1152-5.645 0-10.89-3.802-12.7-9.418-0.4608-1.498-0.72-2.995-0.72-4.493 0-2.995 0.9504-5.933 2.794-8.554 2.016-2.851 4.032-5.299 6.509-7.834l0.864-0.8928-0.2016-1.066-0.3744-1.757-0.4896-2.246c-0.144-0.8352-0.3168-1.642-0.3456-1.814-0.144-0.9504-0.2304-1.872-0.2304-2.822 0-3.629 1.181-7.114 3.398-9.907 0.6624-0.864 1.843-2.016 2.16-2.102m1.757 5.702h-0.2304c-1.181 0-2.707 1.094-3.744 2.707-1.066 1.584-1.613 3.686-1.613 5.846 0 0.576 0.0288 1.181 0.1152 1.786 0.0864 0.432 0.1152 0.72 0.3456 1.757l0.4032 1.814c0.1152 0.5472 0.2016 0.9792 0.2016 1.037 0.0288 0 0.9216-0.9792 1.21-1.325 2.88-3.254 4.608-6.682 4.982-9.706 0.0288-0.288 0.0288-0.5184 0.0288-0.8064 0-0.8928-0.1152-1.757-0.3168-2.218-0.2304-0.4608-0.7488-0.8352-1.382-0.8928m-4.349 22.26c-0.0576-0.4032-0.144-0.72-0.144-0.7776h-0.0288c-0.0576 0-1.296 1.44-2.16 2.448-1.469 1.786-3.024 3.917-3.658 4.954-1.21 2.045-1.814 4.32-1.814 6.566 0 1.469 0.288 2.88 0.8064 4.234 1.555 4.003 5.126 6.509 9.014 6.509 0.4608 0 0.9792-0.0288 1.469-0.1152 0.6336-0.1152 1.411-0.3456 1.411-0.432 0 0-0.0576-0.288-0.144-0.6048l-0.8352-4.118-0.6624-3.082-0.432-2.131-0.4608-2.074c-0.2304-1.238-0.3168-1.555-0.3168-1.555s0-0.0288-0.0288-0.0288c-0.1728 0-1.094 0.4608-1.498 0.7488-1.498 1.037-2.275 2.678-2.275 4.291 0 1.526 0.7488 3.053 2.189 3.946 0.3168 0.2016 0.432 0.3744 0.432 0.576v0.144c-0.0576 0.3456-0.2592 0.4896-0.5472 0.4896-0.1152 0-0.2592-0.0288-0.432-0.1152-2.65-1.152-4.435-3.888-4.435-6.883 0-3.456 2.16-6.451 5.472-7.632l0.1728-0.0576-0.288-1.44-0.8064-3.859m4.32 9.619c-0.2304-0.0288-0.4608-0.0288-0.6336-0.0288h-0.2016-0.144l0.1152 0.5184 0.6048 2.822 0.3744 1.843 0.4032 1.814 0.8064 4.003 0.3168 1.526c0.1152 0.4032 0.1728 0.7488 0.2016 0.7488s0.5184-0.288 0.8352-0.5184c1.469-1.037 2.563-2.65 2.966-4.32 0.144-0.5472 0.2016-1.123 0.2016-1.67 0-3.341-2.477-6.365-5.846-6.739" stroke-width=".3"/></g><g class="vf-keysignature"><path d="m91 164m5.937-14.64c0.08208-0.0547 0.1094-0.0547 0.2189-0.0547 0.2736 0 0.4651 0.1094 0.5472 0.3557l0.02736 0.0821 0.02736 3.584v3.612l0.7114-0.1915c0.4104-0.1094 0.7114-0.1368 0.9029-0.1368 0.2462 0 0.3557 0.0821 0.4378 0.301 0.02736 0.0821 0.02736 0.7114 0.02736 1.395 0 0.6566 0 1.341-0.02736 1.368-0.1094 0.2736-0.1915 0.301-0.9302 0.4925-0.9302 0.2462-1.122 0.2736-1.122 0.2736v1.778 1.231 2.955l0.7114-0.1915c0.4378-0.1094 0.7114-0.1368 0.9029-0.1368 0.1368 0 0.2462 0.0274 0.3283 0.1368 0.1368 0.1642 0.1368 0.1368 0.1368 1.149v0.8482c0 1.012 0 0.985-0.1368 1.122-0.1094 0.1094-0.08208 0.1094-1.341 0.4104-0.2736 0.0821-0.5198 0.1642-0.5472 0.1642h-0.05472v3.639l-0.02736 3.666-0.02736 0.1094c-0.08208 0.2189-0.301 0.3283-0.5472 0.3283-0.1642 0-0.4104-0.1094-0.5198-0.3283l-0.02736-0.1094v-7.004h-0.02736l-0.6293 0.1642-1.176 0.301c-0.301 0.0821-0.5746 0.1368-0.5746 0.1368-0.05472 0-0.05472 0.1915-0.05472 3.721v3.776l-0.02736 0.0821c-0.1094 0.2189-0.3283 0.3283-0.5198 0.3283-0.2189 0-0.4651-0.1094-0.5746-0.3283l-0.02736-0.0821v-3.612c0-3.338 0-3.584-0.02736-3.584-0.301 0.0821-1.341 0.3557-1.45 0.3557-0.2462 0-0.4104-0.1642-0.5198-0.3557v-1.395-1.286l0.02736-0.1094c0.1094-0.2736 0.1094-0.2736 1.642-0.6566l0.3283-0.0821v-2.982c0-2.763 0-2.955-0.02736-2.955-0.301 0.0821-1.341 0.3283-1.45 0.3283-0.2462 0-0.4104-0.1368-0.5198-0.3283v-1.395-1.286l0.02736-0.1094c0.1094-0.2736 0.1094-0.2736 1.642-0.6566l0.3283-0.0821v-7.278l0.02736-0.1094c0.1094-0.1915 0.3557-0.3557 0.5746-0.3557 0.08208 0 0.1368 0.0547 0.2189 0.0821 0.1094 0.0274 0.2189 0.1642 0.301 0.2736l0.02736 0.1094v6.977h0.1642c0.05472-0.0274 0.5472-0.1368 1.04-0.2462l1.067-0.3283 0.1915-0.0274v-7.469l0.02736-0.0821c0.08208-0.1094 0.1642-0.2462 0.301-0.301m-0.3283 14.39v-3.01c-0.02736 0-0.301 0.0821-0.6293 0.1642l-1.204 0.301c-0.301 0.0821-0.5746 0.1368-0.5746 0.1368-0.05472 0-0.05472 0.1642-0.05472 2.982v3.01l0.1642-0.0547c0.05472-0.0274 0.5472-0.1368 1.04-0.2462l1.067-0.2736 0.1915-0.0821v-2.928" stroke-width=".3"/></g><g class="vf-timesignature" stroke-width=".3"><path d="m116.7 184m5.011-18.66h0.4896 0.9792c2.65 0.288 4.723 1.728 5.098 3.6 0.0576 0.1728 0.0576 0.3744 0.0576 0.576 0 0.2304 0 0.432-0.0576 0.5472-0.3744 1.354-1.958 2.592-3.974 3.197-0.144 0.0576-0.2016 0.0576-0.2016 0.0864 0.0288 0 0.1152 0.0288 0.2016 0.0288 2.736 1.008 4.176 2.938 4.176 4.81 0 1.44-0.8064 2.822-2.621 3.744-1.066 0.576-2.246 0.8352-3.398 0.8352-1.901 0-3.773-0.72-5.098-2.016-0.4896-0.4608-0.6624-1.037-0.6624-1.613 0-1.181 0.8352-2.304 2.218-2.304s2.16 1.066 2.16 2.16c0 0.8352-0.432 1.67-1.411 2.074 0 0.0288 0.8352 0.2016 1.267 0.2304h0.1728c1.901 0 3.226-1.354 3.226-3.226 0-0.2016 0-0.3744-0.0288-0.576-0.3168-2.102-1.728-3.658-3.37-3.715-0.4032-0.0288-0.6048-0.2016-0.6048-0.4608 0-0.3456 0.1728-0.4896 0.6048-0.4896 1.411-0.0864 2.621-1.037 3.082-2.477 0.1152-0.288 0.144-0.576 0.144-0.8064 0-1.21-0.8928-2.304-2.218-2.592-0.2016-0.0864-0.4608-0.0864-0.7488-0.0864-0.4032 0-0.7776 0.0288-1.181 0.0864l-0.1152 0.0288 0.1152 0.0864c0.7488 0.4032 1.066 1.123 1.066 1.843 0 0.9504-0.6336 1.901-1.728 2.16-0.144 0.0288-0.3168 0.0288-0.4608 0.0288-1.267 0-2.218-1.152-2.218-2.362 0-0.5184 0.1728-1.037 0.6048-1.469 1.008-1.094 2.534-1.728 4.435-1.93m0.864 18.69h0.0288-0.0864 0.0576m0-19.41h0.0288-0.0864 0.0576"/><path d="m115.8 204m5.011-18.35c0.0288-0.0288 0.432-0.0288 1.67-0.0288h1.296 2.909l0.0864 0.0864c0.144 0.0864 0.2304 0.2304 0.2304 0.3456 0 0.1728-0.0864 0.288-0.2016 0.4032-0.0288 0.0864-0.288 0.3168-0.4608 0.576l-1.526 1.757-1.958 2.218-1.037 1.181-1.555 1.786-2.045 2.333c-0.3456 0.432-0.72 0.7776-0.72 0.7776 0 0.0576 0.2592 0.0576 2.65 0.0576h2.621v-1.872c0-1.901 0-1.93 0.0288-1.958 0.0576-0.0864 0.3168-0.4032 1.325-1.584l0.8064-0.864 0.6048-0.7776 0.6336-0.6624 0.3168-0.4032c0.1152-0.1728 0.288-0.2016 0.432-0.2016 0.1728 0 0.3168 0.0864 0.4032 0.2304 0.0288 0.0864 0.0288 0.144 0.0288 2.275v1.814 4.003h0.72c0.6624 0 0.6912 0 0.7776 0.0288 0.2304 0.0864 0.3456 0.3168 0.3456 0.576 0 0.144-0.0288 0.3168-0.144 0.432-0.1728 0.144-0.2016 0.144-0.9792 0.144h-0.72v0.4896c0.0288 1.469 0.3168 2.045 1.44 2.65 0.4032 0.2016 0.4896 0.2592 0.4896 0.5472 0 0.2016-0.0576 0.288-0.2016 0.4032l-0.0864 0.0288h-7.862l-0.0864-0.0288c-0.1728-0.1152-0.2016-0.2016-0.2016-0.4032 0-0.288 0.0288-0.3456 0.4608-0.5472 1.123-0.6048 1.411-1.181 1.411-2.65v-0.4896h-3.312c-0.6048 0.0576-1.094 0.0576-1.498 0.0576-1.814 0-1.843-0.0576-1.872-0.0576-0.1728-0.0576-0.2304-0.2304-0.2304-0.432s0-0.2016 0.576-0.864c2.419-2.938 4.118-7.2 4.118-10.6 0-0.5184 0.0864-0.6912 0.3168-0.7776m1.728 18.37h0.0288-0.0864 0.0576m0-19.41h0.0288-0.0864 0.0576"/></g><path d="m138.3 214h18.02" fill="none" stroke="#000"/><g class="vf-stavenote"><g class="vf-note" pointer-events="bounding-box"><g class="vf-stem"><path id="vf-auto1006-stem" class="vf-stem" d="m152.6 219v-35" fill="none" stroke="#000" stroke-width="1.5"/></g><g class="vf-notehead"><path d="m141.3 219m7.357-5.223h0.3089 0.0281 0.3089c2.527 0.1404 4.015 1.797 4.015 3.875 0 1.011-0.337 2.162-1.179 3.257-1.601 2.162-4.212 3.342-6.486 3.342-1.769 0-3.285-0.702-4.015-2.134-0.2246-0.5616-0.337-1.095-0.337-1.685 0-3.061 3.426-6.458 7.357-6.655" stroke-width=".3"/></g></g></g><g class="vf-stavenote"><g class="vf-note" pointer-events="bounding-box"><g class="vf-stem"><path id="vf-auto1012-stem" class="vf-stem" d="m214 209v-35" fill="none" stroke="#000" stroke-width="1.5"/></g><g class="vf-notehead"><path d="m202.8 209m7.357-5.223h0.3089 0.0281 0.3089c2.527 0.1404 4.015 1.797 4.015 3.875 0 1.011-0.337 2.162-1.179 3.257-1.601 2.162-4.212 3.342-6.486 3.342-1.769 0-3.285-0.702-4.015-2.134-0.2246-0.5616-0.337-1.095-0.337-1.685 0-3.061 3.426-6.458 7.357-6.655" stroke-width=".3"/></g></g><g class="vf-modifiers"><path d="m190.9 209m5.937-14.64c0.0821-0.0547 0.1094-0.0547 0.2189-0.0547 0.2736 0 0.4651 0.1094 0.5472 0.3557l0.0274 0.0821 0.0274 3.584v3.612l0.7114-0.1915c0.4104-0.1094 0.7114-0.1368 0.9029-0.1368 0.2462 0 0.3557 0.0821 0.4378 0.301 0.0274 0.0821 0.0274 0.7114 0.0274 1.395 0 0.6566 0 1.341-0.0274 1.368-0.1094 0.2736-0.1915 0.301-0.9302 0.4925-0.9302 0.2462-1.122 0.2736-1.122 0.2736v1.778 1.231 2.955l0.7114-0.1915c0.4378-0.1094 0.7114-0.1368 0.9029-0.1368 0.1368 0 0.2462 0.0274 0.3283 0.1368 0.1368 0.1642 0.1368 0.1368 0.1368 1.149v0.8482c0 1.012 0 0.985-0.1368 1.122-0.1094 0.1094-0.0821 0.1094-1.341 0.4104-0.2736 0.0821-0.5198 0.1642-0.5472 0.1642h-0.0547v3.639l-0.0274 3.666-0.0274 0.1094c-0.0821 0.2189-0.301 0.3283-0.5472 0.3283-0.1642 0-0.4104-0.1094-0.5198-0.3283l-0.0274-0.1094v-7.004h-0.0274l-0.6293 0.1642-1.176 0.301c-0.301 0.0821-0.5746 0.1368-0.5746 0.1368-0.0547 0-0.0547 0.1915-0.0547 3.721v3.776l-0.0274 0.0821c-0.1094 0.2189-0.3283 0.3283-0.5198 0.3283-0.2189 0-0.4651-0.1094-0.5746-0.3283l-0.0274-0.0821v-3.612c0-3.338 0-3.584-0.0274-3.584-0.301 0.0821-1.341 0.3557-1.45 0.3557-0.2462 0-0.4104-0.1642-0.5198-0.3557v-1.395-1.286l0.0274-0.1094c0.1094-0.2736 0.1094-0.2736 1.642-0.6566l0.3283-0.0821v-2.982c0-2.763 0-2.955-0.0274-2.955-0.301 0.0821-1.341 0.3283-1.45 0.3283-0.2462 0-0.4104-0.1368-0.5198-0.3283v-1.395-1.286l0.0274-0.1094c0.1094-0.2736 0.1094-0.2736 1.642-0.6566l0.3283-0.0821v-7.278l0.0274-0.1094c0.1094-0.1915 0.3557-0.3557 0.5746-0.3557 0.0821 0 0.1368 0.0547 0.2189 0.0821 0.1094 0.0274 0.2189 0.1642 0.301 0.2736l0.0274 0.1094v6.977h0.1642c0.0547-0.0274 0.5472-0.1368 1.04-0.2462l1.067-0.3283 0.1915-0.0274v-7.469l0.0274-0.0821c0.0821-0.1094 0.1642-0.2462 0.301-0.301m-0.3283 14.39v-3.01c-0.0274 0-0.301 0.0821-0.6293 0.1642l-1.204 0.301c-0.301 0.0821-0.5746 0.1368-0.5746 0.1368-0.0547 0-0.0547 0.1642-0.0547 2.982v3.01l0.1642-0.0547c0.0547-0.0274 0.5472-0.1368 1.04-0.2462l1.067-0.2736 0.1915-0.0821v-2.928" stroke-width=".3"/></g></g><g class="vf-stavenote"><g class="vf-note" pointer-events="bounding-box"><g class="vf-stem"><path id="vf-auto1020-stem" class="vf-stem" d="m262.7 199v-35" fill="none" stroke="#000" stroke-width="1.5"/></g><g class="vf-notehead"><path d="m251.4 199m7.357-5.223h0.3089 0.0281 0.3089c2.527 0.1404 4.015 1.797 4.015 3.875 0 1.011-0.337 2.162-1.179 3.257-1.601 2.162-4.212 3.342-6.486 3.342-1.769 0-3.285-0.702-4.015-2.134-0.2246-0.5616-0.337-1.095-0.337-1.685 0-3.061 3.426-6.458 7.357-6.655" stroke-width=".3"/></g></g></g></g><g class="vf-measure"><g fill="none" stroke="#000"><path d="m298 164h86.78"/><path d="m298 174h86.78"/><path d="m298 184h86.78"/><path d="m298 194h86.78"/><path d="m298 204h86.78"/></g><rect x="384.8" y="163.5" width="1" height="41" stroke="#000" stroke-width=".3"/><path d="m312 214h18.02" fill="none" stroke="#000"/><g class="vf-stavenote"><g class="vf-note" pointer-events="bounding-box"><g class="vf-stem"><path id="vf-auto1027-stem" class="vf-stem" d="m326.3 219v-60" fill="none" stroke="#000" stroke-width="1.5"/></g><g class="vf-notehead"><path d="m315 219m7.357-5.223h0.3089 0.0281 0.3089c2.527 0.1404 4.015 1.797 4.015 3.875 0 1.011-0.337 2.162-1.179 3.257-1.601 2.162-4.212 3.342-6.486 3.342-1.769 0-3.285-0.702-4.015-2.134-0.2246-0.5616-0.337-1.095-0.337-1.685 0-3.061 3.426-6.458 7.357-6.655m2.92 1.544c-0.1123-0.0562-0.2527-0.0842-0.3931-0.0842-0.8705 0-2.331 0.5335-3.735 1.488-2.611 1.629-4.746 4.015-4.83 5.391v0.0281c0 0.4774 0.3089 0.6739 0.8424 0.6739 1.151 0 3.285-0.9828 5.251-2.555 2.022-1.601 3.313-3.398 3.313-4.324 0-0.3089-0.1404-0.5616-0.4493-0.6178" stroke-width=".3"/></g><g class="vf-notehead"><path d="m315 204m7.357-5.223h0.3089 0.0281 0.3089c2.527 0.1404 4.015 1.797 4.015 3.875 0 1.011-0.337 2.162-1.179 3.257-1.601 2.162-4.212 3.342-6.486 3.342-1.769 0-3.285-0.702-4.015-2.134-0.2246-0.5616-0.337-1.095-0.337-1.685 0-3.061 3.426-6.458 7.357-6.655m2.92 1.544c-0.1123-0.0562-0.2527-0.0842-0.3931-0.0842-0.8705 0-2.331 0.5335-3.735 1.488-2.611 1.629-4.746 4.015-4.83 5.391v0.0281c0 0.4774 0.3089 0.6739 0.8424 0.6739 1.151 0 3.285-0.9828 5.251-2.555 2.022-1.601 3.313-3.398 3.313-4.324 0-0.3089-0.1404-0.5616-0.4493-0.6178" stroke-width=".3"/></g><g class="vf-notehead"><path d="m315 194m7.357-5.223h0.3089 0.0281 0.3089c2.527 0.1404 4.015 1.797 4.015 3.875 0 1.011-0.337 2.162-1.179 3.257-1.601 2.162-4.212 3.342-6.486 3.342-1.769 0-3.285-0.702-4.015-2.134-0.2246-0.5616-0.337-1.095-0.337-1.685 0-3.061 3.426-6.458 7.357-6.655m2.92 1.544c-0.1123-0.0562-0.2527-0.0842-0.3931-0.0842-0.8705 0-2.331 0.5335-3.735 1.488-2.611 1.629-4.746 4.015-4.83 5.391v0.0281c0 0.4774 0.3089 0.6739 0.8424 0.6739 1.151 0 3.285-0.9828 5.251-2.555 2.022-1.601 3.313-3.398 3.313-4.324 0-0.3089-0.1404-0.5616-0.4493-0.6178" stroke-width=".3"/></g></g><g class="vf-modifiers" stroke-width=".3"><path d="m334 219a2 2 0 0 0-4 0 2 2 0 0 0 4 0"/><path d="m334 199a2 2 0 0 0-4 0 2 2 0 0 0 4 0"/><path d="m334 189a2 2 0 0 0-4 0 2 2 0 0 0 4 0"/></g></g></g></g><path d="m66.78 87.68v1.035h-8.613v-1.035l2.969-0.5273 8.926-24.84h3.711l9.277 24.84 3.32 0.5273v1.035h-11.07v-1.035l3.516-0.5273-2.598-7.559h-10.31l-2.637 7.559zm4.199-22.56-4.492 12.71h9.121zm40.31 23.59h-0.6836l-9.59-22.52v20.96l3.516 0.5273v1.035h-8.926v-1.035l3.359-0.5273v-23.09l-3.359-0.5078v-1.035h7.93l8.516 19.92 9.297-19.92h7.5v1.035l-3.359 0.5078v23.09l3.359 0.5273v1.035h-10.62v-1.035l3.516-0.5273v-20.96zm24.84-5.234q0 3.359 3.125 3.359 2.422 0 4.531-0.6055v-14.51l-2.773-0.4883v-0.8789h5.996v16.99l2.324 0.4883v0.8789h-5.352l-0.1562-1.484q-1.387 0.7617-3.203 1.328-1.816 0.5469-3.047 0.5469-4.688 0-4.688-5.391v-11.99l-2.344-0.4883v-0.8789h5.586zm28.01 0.07813q0 2.734-1.738 4.141-1.719 1.406-5.098 1.406-1.367 0-3.027-0.293-1.641-0.2734-2.578-0.625v-4.512h0.8789l0.957 2.559q1.465 1.328 3.809 1.328 3.789 0 3.789-3.242 0-2.383-2.988-3.398l-1.738-0.5664q-1.973-0.6445-2.871-1.309-0.8984-0.6641-1.387-1.621-0.4883-0.9766-0.4883-2.344 0-2.422 1.641-3.809 1.66-1.406 4.473-1.406 2.012 0 5.039 0.6055v4.004h-0.918l-0.8203-2.129q-1.035-0.918-3.262-0.918-1.582 0-2.422 0.7812-0.8203 0.7812-0.8203 2.109 0 1.113 0.7422 1.875 0.7617 0.7617 2.285 1.27 2.871 0.9766 3.75 1.426 0.8789 0.4492 1.484 1.113 0.625 0.6445 0.957 1.484 0.3516 0.8398 0.3516 2.07zm8.848-19.2q0 0.8594-0.625 1.484t-1.504 0.625q-0.8594 0-1.484-0.625t-0.625-1.484q0-0.8789 0.625-1.504t1.484-0.625q0.8789 0 1.504 0.625t0.625 1.504zm-0.1953 22.99 3.145 0.4883v0.8789h-9.512v-0.8789l3.125-0.4883v-15.62l-2.598-0.4883v-0.8789h5.84zm20.43 0.2539q-0.957 0.7031-2.637 1.113-1.68 0.3906-3.438 0.3906-8.926 0-8.926-9.707 0-4.59 2.266-7.051 2.285-2.48 6.523-2.48 2.637 0 5.762 0.6055v5.117h-1.074l-0.8398-3.242q-1.621-0.918-3.887-0.918-5.234 0-5.234 7.969 0 4.141 1.582 5.918 1.602 1.758 4.941 1.758 2.852 0 4.961-0.6445zm7.422-0.4492 3.242 0.5273v1.035h-8.555v-1.035l2.891-0.5273 8.906-11.84-7.598-11.25-2.949-0.5078v-1.035h10.8v1.035l-3.32 0.5078 5.43 8.086 6.074-8.086-3.242-0.5078v-1.035h8.574v1.035l-2.891 0.5078-7.363 9.805 9.004 13.28 2.969 0.5273v1.035h-10.8v-1.035l3.32-0.5273-6.875-10.16zm39.53 1.562h-0.6836l-9.59-22.52v20.96l3.516 0.5273v1.035h-8.926v-1.035l3.359-0.5273v-23.09l-3.359-0.5078v-1.035h7.93l8.516 19.92 9.297-19.92h7.5v1.035l-3.359 0.5078v23.09l3.359 0.5273v1.035h-10.62v-1.035l3.516-0.5273v-20.96zm31.05-25.16-4.043 0.5078v22.97h5.156q4.16 0 6.113-0.3906l1.211-5.449h1.27l-0.3516 7.52h-20.53v-1.035l3.359-0.5273v-23.09l-3.359-0.5078v-1.035h11.17zm26.05 25.16v-1.035l4.16-0.5273v-22.95h-0.9961q-4.941 0-6.758 0.3906l-0.5273 4.082h-1.309v-6.152h23.05v6.152h-1.328l-0.5274-4.082q-0.5859-0.1367-2.559-0.2344-1.973-0.1172-4.316-0.1172h-0.957v22.91l4.16 0.5273v1.035zm22.99-5.234q0 3.359 3.125 3.359 2.422 0 4.531-0.6055v-14.51l-2.773-0.4883v-0.8789h5.996v16.99l2.324 0.4883v0.8789h-5.352l-0.1562-1.484q-1.387 0.7617-3.203 1.328-1.816 0.5469-3.047 0.5469-4.688 0-4.688-5.391v-11.99l-2.344-0.4883v-0.8789h5.586zm20.41 5.625q-1.875 0-2.812-1.113-0.918-1.113-0.918-3.125v-12.87h-2.402v-0.8789l2.441-0.7617 1.973-4.16h1.23v4.16h4.199v1.641h-4.199v12.52q0 1.27 0.5664 1.914 0.5859 0.6445 1.523 0.6445 1.133 0 2.754-0.3125v1.27q-0.6836 0.4688-1.973 0.7617-1.289 0.3125-2.383 0.3125zm23.07-9.668q0 9.668-8.594 9.668-4.141 0-6.25-2.48-2.109-2.48-2.109-7.188 0-4.648 2.109-7.109 2.109-2.461 6.406-2.461 4.18 0 6.309 2.422 2.129 2.402 2.129 7.148zm-3.516 0q0-4.219-1.23-6.113t-3.848-1.895q-2.559 0-3.711 1.816-1.133 1.816-1.133 6.191 0 4.434 1.152 6.289 1.172 1.836 3.691 1.836 2.578 0 3.828-1.914 1.25-1.914 1.25-6.211zm18.01-9.57v4.961h-0.8398l-1.133-2.148q-0.9766 0-2.324 0.2734-1.328 0.2539-2.305 0.6836v13.71l3.145 0.4883v0.8789h-8.711v-0.8789l2.324-0.4883v-15.62l-2.324-0.4883v-0.8789h5.352l0.1758 2.285q1.172-0.9766 3.164-1.875 2.012-0.8984 3.184-0.8984zm7.754-5.508q0 0.8594-0.625 1.484t-1.504 0.625q-0.8594 0-1.484-0.625t-0.625-1.484q0-0.8789 0.625-1.504t1.484-0.625q0.8789 0 1.504 0.625t0.625 1.504zm-0.1953 22.99 3.145 0.4883v0.8789h-9.512v-0.8789l3.125-0.4883v-15.62l-2.598-0.4883v-0.8789h5.84zm12.99-17.4q3.008 0 4.414 1.23 1.426 1.23 1.426 3.77v12.4l2.285 0.4883v0.8789h-5.039l-0.3711-1.836q-2.227 2.227-5.684 2.227-4.707 0-4.707-5.469 0-1.836 0.7031-3.027 0.7227-1.211 2.285-1.836 1.562-0.6445 4.531-0.7031l2.754-0.07813v-2.871q0-1.895-0.7031-2.793-0.6836-0.8984-2.129-0.8984-1.953 0-3.574 0.918l-0.6641 2.285h-1.094v-4.004q3.164-0.6836 5.566-0.6836zm2.598 9.414-2.559 0.07813q-2.617 0.09766-3.555 1.016-0.918 0.918-0.918 3.066 0 3.438 2.793 3.438 1.328 0 2.285-0.293 0.9766-0.3125 1.953-0.7812zm13.24 7.988 3.145 0.4883v0.8789h-9.512v-0.8789l3.125-0.4883v-25.04l-3.125-0.4688v-0.8789h6.367z" stroke-width=".3" aria-label="A MusicXML Tutorial"/></svg>
