<svg width="105.8mm" height="67.46mm" version="1.2" viewBox="0 0 1500 956.2" xmlns="http://www.w3.org/2000/svg"><title>Untitled score</title><desc>Generated by MuseScore Studio 4.5.1</desc><g transform="scale(2.679)"><path class="" d="m0 0h560v357h-560v-357" fill="#fff" fill-rule="evenodd" stroke-width=".1284"/><polyline class="StaffLines" transform="matrix(.1607 0 0 1 24.2 -508)" points="336.6 634.2 2847 634.2" fill="none" stroke="#000" stroke-linejoin="bevel" stroke-width="2.73"/><polyline class="StaffLines" transform="matrix(.1607 0 0 1 24.2 -508)" points="336.6 659 2847 659" fill="none" stroke="#000" stroke-linejoin="bevel" stroke-width="2.73"/><polyline class="StaffLines" transform="matrix(.1607 0 0 1 24.2 -508)" points="336.6 683.8 2847 683.8" fill="none" stroke="#000" stroke-linejoin="bevel" stroke-width="2.73"/><polyline class="StaffLines" transform="matrix(.1607 0 0 1 24.2 -508)" points="336.6 708.6 2847 708.6" fill="none" stroke="#000" stroke-linejoin="bevel" stroke-width="2.73"/><polyline class="StaffLines" transform="matrix(.1607 0 0 1 24.2 -508)" points="336.6 733.4 2847 733.4" fill="none" stroke="#000" stroke-linejoin="bevel" stroke-width="2.73"/><polyline class="BarLine" transform="matrix(1 0 0 .379 -258.3 -115)" points="338.8 632.8 338.8 894.6" fill="none" stroke="#000" stroke-linejoin="bevel" stroke-width="4.46"/><path class="Clef" d="m157.1 202.7c0 7.052-2.883 14.29-9.92 17.17-2.077-11.9-4.758-27.68-5.456-32.05 8.928 0 15.38 6.061 15.38 14.88m-14.09 18.35c-1.984 0.403-3.859 0.6044-5.751 0.6044-14.18 0-26.29-9.92-26.29-24.91 0-12.09 8.525-22.91 17.27-30.46 1.674-1.488 3.271-2.867 4.759-4.355 0.8835 5.347 1.581 10.01 2.278 14.09-9.036 2.681-15.17 12.2-15.17 21.53 0 6.944 5.456 16.46 13.39 16.46 0.7904 0 1.689-0.403 1.689-1.287 0-0.899-0.992-1.395-2.185-2.185-3.875-2.387-6.061-4.96-6.061-9.827 0-6.045 4.464-10.91 10.32-12.29l5.751 32.63m-8.727-102c0.899-3.968 5.456-14.38 10.62-14.38 1.488 0 3.859 4.851 3.859 11.7 0 10.32-7.626 18.06-14.48 24.8-0.589-3.968-1.085-7.827-1.085-12 0-3.673 0.2945-7.053 1.085-10.12m-20.83 132.4c0 6.557 5.053 15.19 18.45 15.19 4.665 0 8.742-1.193 12.31-3.379 5.363-3.766 6.743-10.32 6.743-16.57 0-3.859-0.589-8.323-1.581-13.98-0.2945-1.984-0.899-4.96-1.488-8.835 9.718-3.177 16.96-13.3 16.96-23.51 0-14.97-10.62-25.09-25.09-25.09-0.992-5.952-1.984-11.81-2.883-17.36 10.52-11.02 17.76-23.42 17.76-39.18 0-9.037-2.774-16.37-4.371-19.95-2.371-5.053-5.255-8.525-7.037-8.525-0.6975 0-3.766 1.193-7.037 5.053-6.355 7.548-8.137 20.24-8.137 28.57 0 5.363 0.496 10.23 2.185 21.34-0.1085 0.093-5.27 5.347-7.347 7.037-9.036 8.432-21.53 20.43-21.53 40.28 0 18.54 16.17 33.12 34.63 33.12 2.867 0 5.549-0.2945 7.827-0.6975 1.891 9.532 2.976 16.48 2.976 21.73 0 10.32-5.255 15.78-15.27 15.78-2.387 0-4.464-0.496-4.666-0.496-0.093-0.1085-0.2944-0.2016-0.2944-0.2945 0-0.2015 0.2015-0.31 0.496-0.403 4.665-0.6975 9.315-4.665 9.315-11 0-5.363-4.061-11.02-11.5-11.02-6.944 0-11.41 5.657-11.41 12.2" stroke-width=".992"/><path class="KeySig" d="m185.8 182.5c0 7.533 4.464 12.99 7.347 15.76 4.061 3.875 9.517 7.145 9.517 7.145 0.2015 0.1085 0.2945 0.2945 0.589 0.2945 0.6975 0 1.302-0.589 1.302-1.287l0.3875-59.72c0-0.6975-0.589-1.286-1.287-1.286h-0.7905c-0.6975 0-1.286 0.589-1.286 1.286l0.186 31.56c-0.589-0.806-2.775-2.976-7.332-2.976-4.96 0-8.634 3.069-8.634 9.223m10.21-4.867c4.371 0 5.751 2.681 5.751 3.58 0 0.186 0.1084 0 0.1084-0.31l0.093 19.65c-1.875-1.597-5.161-4.666-6.944-7.347-2.48-3.766-2.868-7.44-2.868-8.928v-1.194c0-2.077 0.2945-5.456 3.86-5.456" stroke-width=".992"/><path class="KeySig" d="m240 152.5c0.6045-0.0931 1.101-0.7905 1.101-1.395v-5.843c0-0.7905-0.496-1.395-1.287-1.395h-0.31l-3.069 0.6975v-14.79h-2.774v15.38l-5.859 1.194v-14.97h-2.681v15.47l-5.255 1.1v-14.99h-2.682v15.58l-3.674 0.7905c-0.589 0.1084-1.085 0.6975-1.085 1.286v5.766c0 0.7905 0.589 1.38 1.395 1.38h0.2945l3.069-0.6975v16.48l-3.674 0.7905c-0.589 0.0931-1.085 0.6975-1.085 1.287v5.751c0 0.806 0.589 1.395 1.395 1.395h0.2945l3.069-0.589v13.78h2.682v-14.38l5.255-1.085v13.98h2.681v-14.48l5.859-1.193v14h2.774v-14.59l3.565-0.6976c0.6045-0.1084 1.193-0.7904 1.193-1.395v-5.844c0-0.806-0.589-1.395-1.379-1.395h-0.31l-3.069 0.6975v-16.37l3.565-0.6975m-14.88 19.34-5.255 1.085v-16.37l5.255-1.085v16.37m2.681-16.86 5.859-1.194v16.37l-5.859 1.194v-16.37" stroke-width=".992"/><polyline class="BarLine" transform="matrix(1 0 0 .379 140.6 -115)" points="338.8 632.8 338.8 894.6" fill="none" stroke="#000" stroke-linejoin="bevel" stroke-width="4.46"/></g></svg>
