<svg version="1.1" viewBox="0 0 440 440" xmlns="http://www.w3.org/2000/svg"><rect width="440" height="440" fill="#fff" fill-rule="evenodd"/><g class="vf-measure"><g fill="none" stroke="#000"><path d="m50 188.2h256.6"/><path d="m50 198.2h256.6"/><path d="m50 208.2h256.6"/><path d="m50 218.2h256.6"/><path d="m50 228.2h256.6"/></g><rect x="306.6" y="187.7" width="1" height="41" stroke="#000" stroke-width=".3"/><g class="vf-clef"><path d="m55 218.2m14.05-43.17c0.0576-0.0288 0.1152-0.0288 0.2016-0.0288 0.3456 0 0.7488 0.288 1.325 1.008 2.333 2.678 3.974 7.344 3.974 11.15 0 0.288-0.0576 0.5184-0.0576 0.8064-0.2592 4.522-2.102 8.237-5.76 11.75l-0.9792 0.9504-0.3456 0.3744v0.1152l0.2016 0.864 0.3168 1.555 0.3168 1.44c0.432 1.958 0.6048 2.966 0.6048 2.966s0.1152 0 0.2592-0.0288c0.144 0 0.6048-0.0576 1.094-0.0576 0.3456 0 0.6912 0.0576 0.864 0.0576 4.061 0.5184 7.2 3.427 8.093 7.517 0.1728 0.6624 0.2304 1.382 0.2304 2.102 0 3.888-2.333 7.603-6.221 9.36-0.2304 0.144-0.3168 0.1728-0.3168 0.1728v0.0288s0.1728 0.6624 0.3168 1.411l0.432 2.189 0.4032 1.757c0.2304 1.123 0.3456 1.93 0.3456 2.65 0 0.6336-0.0864 1.21-0.2304 1.872-0.9792 4.003-4.464 6.394-8.093 6.394-1.786 0-3.629-0.576-5.242-1.872-1.44-1.21-2.074-2.304-2.074-3.744 0-2.534 2.045-4.32 4.176-4.32 0.7488 0 1.498 0.2304 2.218 0.6624 1.21 0.8352 1.757 2.102 1.757 3.341 0 1.901-1.325 3.773-3.6 3.917h-0.2304l0.1728 0.1152c0.9504 0.4032 1.901 0.6048 2.822 0.6048 2.333 0 4.522-1.181 5.846-3.226 0.7488-1.152 1.152-2.506 1.152-3.859 0-0.5184-0.0864-1.037-0.2016-1.613 0-0.0576-0.0864-0.5184-0.2016-0.9504-0.6336-3.11-1.008-4.925-1.008-4.925-0.0576 0-0.1728 0-0.2592 0.0576-0.288 0.0576-0.8928 0.2016-1.152 0.2304-0.6336 0.0864-1.238 0.1152-1.814 0.1152-5.645 0-10.89-3.802-12.7-9.418-0.4608-1.498-0.72-2.995-0.72-4.493 0-2.995 0.9504-5.933 2.794-8.554 2.016-2.851 4.032-5.299 6.509-7.834l0.864-0.8928-0.2016-1.066-0.3744-1.757-0.4896-2.246c-0.144-0.8352-0.3168-1.642-0.3456-1.814-0.144-0.9504-0.2304-1.872-0.2304-2.822 0-3.629 1.181-7.114 3.398-9.907 0.6624-0.864 1.843-2.016 2.16-2.102m1.757 5.702h-0.2304c-1.181 0-2.707 1.094-3.744 2.707-1.066 1.584-1.613 3.686-1.613 5.846 0 0.576 0.0288 1.181 0.1152 1.786 0.0864 0.432 0.1152 0.72 0.3456 1.757l0.4032 1.814c0.1152 0.5472 0.2016 0.9792 0.2016 1.037 0.0288 0 0.9216-0.9792 1.21-1.325 2.88-3.254 4.608-6.682 4.982-9.706 0.0288-0.288 0.0288-0.5184 0.0288-0.8064 0-0.8928-0.1152-1.757-0.3168-2.218-0.2304-0.4608-0.7488-0.8352-1.382-0.8928m-4.349 22.26c-0.0576-0.4032-0.144-0.72-0.144-0.7776h-0.0288c-0.0576 0-1.296 1.44-2.16 2.448-1.469 1.786-3.024 3.917-3.658 4.954-1.21 2.045-1.814 4.32-1.814 6.566 0 1.469 0.288 2.88 0.8064 4.234 1.555 4.003 5.126 6.509 9.014 6.509 0.4608 0 0.9792-0.0288 1.469-0.1152 0.6336-0.1152 1.411-0.3456 1.411-0.432 0 0-0.0576-0.288-0.144-0.6048l-0.8352-4.118-0.6624-3.082-0.432-2.131-0.4608-2.074c-0.2304-1.238-0.3168-1.555-0.3168-1.555s0-0.0288-0.0288-0.0288c-0.1728 0-1.094 0.4608-1.498 0.7488-1.498 1.037-2.275 2.678-2.275 4.291 0 1.526 0.7488 3.053 2.189 3.946 0.3168 0.2016 0.432 0.3744 0.432 0.576v0.144c-0.0576 0.3456-0.2592 0.4896-0.5472 0.4896-0.1152 0-0.2592-0.0288-0.432-0.1152-2.65-1.152-4.435-3.888-4.435-6.883 0-3.456 2.16-6.451 5.472-7.632l0.1728-0.0576-0.288-1.44-0.8064-3.859m4.32 9.619c-0.2304-0.0288-0.4608-0.0288-0.6336-0.0288h-0.3456l0.1152 0.5184 0.6048 2.822 0.3744 1.843 0.4032 1.814 0.8064 4.003 0.3168 1.526c0.1152 0.4032 0.1728 0.7488 0.2016 0.7488s0.5184-0.288 0.8352-0.5184c1.469-1.037 2.563-2.65 2.966-4.32 0.144-0.5472 0.2016-1.123 0.2016-1.67 0-3.341-2.477-6.365-5.846-6.739" stroke-width=".3"/></g><g class="vf-keysignature"><path d="m91 188.2m5.937-14.64c0.08208-0.0547 0.1094-0.0547 0.2189-0.0547 0.2736 0 0.4651 0.1094 0.5472 0.3557l0.02736 0.0821 0.02736 3.584v3.612l0.7114-0.1915c0.4104-0.1094 0.7114-0.1368 0.9029-0.1368 0.2462 0 0.3557 0.0821 0.4378 0.301 0.02736 0.0821 0.02736 0.7114 0.02736 1.395 0 0.6566 0 1.341-0.02736 1.368-0.1094 0.2736-0.1915 0.301-0.9302 0.4925-0.9302 0.2462-1.122 0.2736-1.122 0.2736v5.964l0.7114-0.1915c0.4378-0.1094 0.7114-0.1368 0.9029-0.1368 0.1368 0 0.2462 0.0274 0.3283 0.1368 0.1368 0.1642 0.1368 0.1368 0.1368 1.149v0.8482c0 1.012 0 0.985-0.1368 1.122-0.1094 0.1094-0.08208 0.1094-1.341 0.4104-0.2736 0.0821-0.5198 0.1642-0.5472 0.1642h-0.05472v3.639l-0.02736 3.666-0.02736 0.1094c-0.08208 0.2189-0.301 0.3283-0.5472 0.3283-0.1642 0-0.4104-0.1094-0.5198-0.3283l-0.02736-0.1094v-7.004h-0.02736l-0.6293 0.1642-1.176 0.301c-0.301 0.0821-0.5746 0.1368-0.5746 0.1368-0.05472 0-0.05472 0.1915-0.05472 3.721v3.776l-0.02736 0.0821c-0.1094 0.2189-0.3283 0.3283-0.5198 0.3283-0.2189 0-0.4651-0.1094-0.5746-0.3283l-0.02736-0.0821v-3.612c0-3.338 0-3.584-0.02736-3.584-0.301 0.0821-1.341 0.3557-1.45 0.3557-0.2462 0-0.4104-0.1642-0.5198-0.3557v-2.681l0.02736-0.1094c0.1094-0.2736 0.1094-0.2736 1.642-0.6566l0.3283-0.0821v-2.982c0-2.763 0-2.955-0.02736-2.955-0.301 0.0821-1.341 0.3283-1.45 0.3283-0.2462 0-0.4104-0.1368-0.5198-0.3283v-2.681l0.02736-0.1094c0.1094-0.2736 0.1094-0.2736 1.642-0.6566l0.3283-0.0821v-7.278l0.02736-0.1094c0.1094-0.1915 0.3557-0.3557 0.5746-0.3557 0.08208 0 0.1368 0.0547 0.2189 0.0821 0.1094 0.0274 0.2189 0.1642 0.301 0.2736l0.02736 0.1094v6.977h0.1642c0.05472-0.0274 0.5472-0.1368 1.04-0.2462l1.067-0.3283 0.1915-0.0274v-7.469l0.02736-0.0821c0.08208-0.1094 0.1642-0.2462 0.301-0.301m-0.3283 14.39v-3.01c-0.02736 0-0.301 0.0821-0.6293 0.1642l-1.204 0.301c-0.301 0.0821-0.5746 0.1368-0.5746 0.1368-0.05472 0-0.05472 0.1642-0.05472 2.982v3.01l0.1642-0.0547c0.05472-0.0274 0.5472-0.1368 1.04-0.2462l1.067-0.2736 0.1915-0.0821v-2.928" stroke-width=".3"/></g><g class="vf-timesignature" stroke-width=".3"><path d="m116.7 208.2m5.011-18.66h1.469c2.65 0.288 4.723 1.728 5.098 3.6 0.0576 0.1728 0.0576 0.3744 0.0576 0.576 0 0.2304 0 0.432-0.0576 0.5472-0.3744 1.354-1.958 2.592-3.974 3.197-0.144 0.0576-0.2016 0.0576-0.2016 0.0864 0.0288 0 0.1152 0.0288 0.2016 0.0288 2.736 1.008 4.176 2.938 4.176 4.81 0 1.44-0.8064 2.822-2.621 3.744-1.066 0.576-2.246 0.8352-3.398 0.8352-1.901 0-3.773-0.72-5.098-2.016-0.4896-0.4608-0.6624-1.037-0.6624-1.613 0-1.181 0.8352-2.304 2.218-2.304s2.16 1.066 2.16 2.16c0 0.8352-0.432 1.67-1.411 2.074 0 0.0288 0.8352 0.2016 1.267 0.2304h0.1728c1.901 0 3.226-1.354 3.226-3.226 0-0.2016 0-0.3744-0.0288-0.576-0.3168-2.102-1.728-3.658-3.37-3.715-0.4032-0.0288-0.6048-0.2016-0.6048-0.4608 0-0.3456 0.1728-0.4896 0.6048-0.4896 1.411-0.0864 2.621-1.037 3.082-2.477 0.1152-0.288 0.144-0.576 0.144-0.8064 0-1.21-0.8928-2.304-2.218-2.592-0.2016-0.0864-0.4608-0.0864-0.7488-0.0864-0.4032 0-0.7776 0.0288-1.181 0.0864l-0.1152 0.0288 0.1152 0.0864c0.7488 0.4032 1.066 1.123 1.066 1.843 0 0.9504-0.6336 1.901-1.728 2.16-0.144 0.0288-0.3168 0.0288-0.4608 0.0288-1.267 0-2.218-1.152-2.218-2.362 0-0.5184 0.1728-1.037 0.6048-1.469 1.008-1.094 2.534-1.728 4.435-1.93m0.864 18.69h0.0288-0.0864 0.0576m0-19.41h0.0288-0.0864 0.0576"/><path d="m115.8 228.2m5.011-18.35c0.0288-0.0288 0.432-0.0288 1.67-0.0288h4.205l0.0864 0.0864c0.144 0.0864 0.2304 0.2304 0.2304 0.3456 0 0.1728-0.0864 0.288-0.2016 0.4032-0.0288 0.0864-0.288 0.3168-0.4608 0.576l-1.526 1.757-1.958 2.218-1.037 1.181-1.555 1.786-2.045 2.333c-0.3456 0.432-0.72 0.7776-0.72 0.7776 0 0.0576 0.2592 0.0576 2.65 0.0576h2.621v-1.872c0-1.901 0-1.93 0.0288-1.958 0.0576-0.0864 0.3168-0.4032 1.325-1.584l0.8064-0.864 0.6048-0.7776 0.6336-0.6624 0.3168-0.4032c0.1152-0.1728 0.288-0.2016 0.432-0.2016 0.1728 0 0.3168 0.0864 0.4032 0.2304 0.0288 0.0864 0.0288 0.144 0.0288 2.275v5.817h0.72c0.6624 0 0.6912 0 0.7776 0.0288 0.2304 0.0864 0.3456 0.3168 0.3456 0.576 0 0.144-0.0288 0.3168-0.144 0.432-0.1728 0.144-0.2016 0.144-0.9792 0.144h-0.72v0.4896c0.0288 1.469 0.3168 2.045 1.44 2.65 0.4032 0.2016 0.4896 0.2592 0.4896 0.5472 0 0.2016-0.0576 0.288-0.2016 0.4032l-0.0864 0.0288h-7.862l-0.0864-0.0288c-0.1728-0.1152-0.2016-0.2016-0.2016-0.4032 0-0.288 0.0288-0.3456 0.4608-0.5472 1.123-0.6048 1.411-1.181 1.411-2.65v-0.4896h-3.312c-0.6048 0.0576-1.094 0.0576-1.498 0.0576-1.814 0-1.843-0.0576-1.872-0.0576-0.1728-0.0576-0.2304-0.2304-0.2304-0.432s0-0.2016 0.576-0.864c2.419-2.938 4.118-7.2 4.118-10.6 0-0.5184 0.0864-0.6912 0.3168-0.7776m1.728 18.37h0.0288-0.0864 0.0576m0-19.41h0.0288-0.0864 0.0576"/></g><g class="vf-stavenote"><g class="vf-note" pointer-events="bounding-box"><g class="vf-stem"><path id="vf-auto1012-stem" class="vf-stem" d="m165.4 208.2v-35" fill="none" stroke="#000" stroke-width="1.5"/></g><g class="vf-notehead"><path d="m154.2 208.2m7.357-5.223h0.6459c2.527 0.1404 4.015 1.797 4.015 3.875 0 1.011-0.337 2.162-1.179 3.257-1.601 2.162-4.212 3.342-6.486 3.342-1.769 0-3.285-0.702-4.015-2.134-0.2246-0.5616-0.337-1.095-0.337-1.685 0-3.061 3.426-6.458 7.357-6.655m2.92 1.544c-0.1123-0.0562-0.2527-0.0842-0.3931-0.0842-0.8705 0-2.331 0.5335-3.735 1.488-2.611 1.629-4.746 4.015-4.83 5.391v0.0281c0 0.4774 0.3089 0.6739 0.8424 0.6739 1.151 0 3.285-0.9828 5.251-2.555 2.022-1.601 3.313-3.398 3.313-4.324 0-0.3089-0.1404-0.5616-0.4493-0.6178" stroke-width=".3"/></g></g></g><g class="vf-stavenote"><g class="vf-note" pointer-events="bounding-box"><g class="vf-stem"><path id="vf-auto1038-stem" class="vf-stem" d="m272.3 213.2v-35" fill="none" stroke="#000" stroke-width="1.5"/></g><g class="vf-notehead"><path d="m261 213.2m7.357-5.223h0.6459c2.527 0.1404 4.015 1.797 4.015 3.875 0 1.011-0.337 2.162-1.179 3.257-1.601 2.162-4.212 3.342-6.486 3.342-1.769 0-3.285-0.702-4.015-2.134-0.2246-0.5616-0.337-1.095-0.337-1.685 0-3.061 3.426-6.458 7.357-6.655" stroke-width=".3"/></g></g></g><path d="m151.2 238.2h18.02" fill="none" stroke="#000"/><g class="vf-stavenote"><g class="vf-note" pointer-events="bounding-box"><g class="vf-stem"><path id="vf-auto1020-stem" class="vf-stem" d="m154.9 243.2v35" fill="none" stroke="#000" stroke-width="1.5"/></g><g class="vf-notehead"><path d="m154.2 243.2m7.357-5.223h0.6459c2.527 0.1404 4.015 1.797 4.015 3.875 0 1.011-0.337 2.162-1.179 3.257-1.601 2.162-4.212 3.342-6.486 3.342-1.769 0-3.285-0.702-4.015-2.134-0.2246-0.5616-0.337-1.095-0.337-1.685 0-3.061 3.426-6.458 7.357-6.655" stroke-width=".3"/></g></g></g><g class="vf-stavenote"><g class="vf-note" pointer-events="bounding-box"><g class="vf-stem"><path id="vf-auto1028-stem" class="vf-stem" d="m214.7 233.2v35" fill="none" stroke="#000" stroke-width="1.5"/></g><g class="vf-notehead"><path d="m214 233.2m7.357-5.223h0.6459c2.527 0.1404 4.015 1.797 4.015 3.875 0 1.011-0.337 2.162-1.179 3.257-1.601 2.162-4.212 3.342-6.486 3.342-1.769 0-3.285-0.702-4.015-2.134-0.2246-0.5616-0.337-1.095-0.337-1.685 0-3.061 3.426-6.458 7.357-6.655" stroke-width=".3"/></g></g><g class="vf-modifiers"><path d="m202.2 233.2m5.937-14.64c0.0821-0.0547 0.1094-0.0547 0.2189-0.0547 0.2736 0 0.4651 0.1094 0.5472 0.3557l0.0274 0.0821 0.0274 3.584v3.612l0.7114-0.1915c0.4104-0.1094 0.7114-0.1368 0.9029-0.1368 0.2462 0 0.3557 0.0821 0.4378 0.301 0.0274 0.0821 0.0274 0.7114 0.0274 1.395 0 0.6566 0 1.341-0.0274 1.368-0.1094 0.2736-0.1915 0.301-0.9302 0.4925-0.9302 0.2462-1.122 0.2736-1.122 0.2736v5.964l0.7114-0.1915c0.4378-0.1094 0.7114-0.1368 0.9029-0.1368 0.1368 0 0.2462 0.0274 0.3283 0.1368 0.1368 0.1642 0.1368 0.1368 0.1368 1.149v0.8482c0 1.012 0 0.985-0.1368 1.122-0.1094 0.1094-0.0821 0.1094-1.341 0.4104-0.2736 0.0821-0.5198 0.1642-0.5472 0.1642h-0.0547v3.639l-0.0274 3.666-0.0274 0.1094c-0.0821 0.2189-0.301 0.3283-0.5472 0.3283-0.1642 0-0.4104-0.1094-0.5198-0.3283l-0.0274-0.1094v-7.004h-0.0274l-0.6293 0.1642-1.176 0.301c-0.301 0.0821-0.5746 0.1368-0.5746 0.1368-0.0547 0-0.0547 0.1915-0.0547 3.721v3.776l-0.0274 0.0821c-0.1094 0.2189-0.3283 0.3283-0.5198 0.3283-0.2189 0-0.4651-0.1094-0.5746-0.3283l-0.0274-0.0821v-3.612c0-3.338 0-3.584-0.0274-3.584-0.301 0.0821-1.341 0.3557-1.45 0.3557-0.2462 0-0.4104-0.1642-0.5198-0.3557v-2.681l0.0274-0.1094c0.1094-0.2736 0.1094-0.2736 1.642-0.6566l0.3283-0.0821v-2.982c0-2.763 0-2.955-0.0274-2.955-0.301 0.0821-1.341 0.3283-1.45 0.3283-0.2462 0-0.4104-0.1368-0.5198-0.3283v-2.681l0.0274-0.1094c0.1094-0.2736 0.1094-0.2736 1.642-0.6566l0.3283-0.0821v-7.278l0.0274-0.1094c0.1094-0.1915 0.3557-0.3557 0.5746-0.3557 0.0821 0 0.1368 0.0547 0.2189 0.0821 0.1094 0.0274 0.2189 0.1642 0.301 0.2736l0.0274 0.1094v6.977h0.1642c0.0547-0.0274 0.5472-0.1368 1.04-0.2462l1.067-0.3283 0.1915-0.0274v-7.469l0.0274-0.0821c0.0821-0.1094 0.1642-0.2462 0.301-0.301m-0.3283 14.39v-3.01c-0.0274 0-0.301 0.0821-0.6293 0.1642l-1.204 0.301c-0.301 0.0821-0.5746 0.1368-0.5746 0.1368-0.0547 0-0.0547 0.1642-0.0547 2.982v3.01l0.1642-0.0547c0.0547-0.0274 0.5472-0.1368 1.04-0.2462l1.067-0.2736 0.1915-0.0821v-2.928" stroke-width=".3"/></g></g><g class="vf-stavenote"><g class="vf-note" pointer-events="bounding-box"><g class="vf-stem"><path id="vf-auto1046-stem" class="vf-stem" d="m261.7 223.2v35" fill="none" stroke="#000" stroke-width="1.5"/></g><g class="vf-notehead"><path d="m261 223.2m7.357-5.223h0.6459c2.527 0.1404 4.015 1.797 4.015 3.875 0 1.011-0.337 2.162-1.179 3.257-1.601 2.162-4.212 3.342-6.486 3.342-1.769 0-3.285-0.702-4.015-2.134-0.2246-0.5616-0.337-1.095-0.337-1.685 0-3.061 3.426-6.458 7.357-6.655" stroke-width=".3"/></g></g></g></g><g class="vf-measure"><g stroke="#000"><g fill="none"><path d="m306.6 188.2h83.42"/><path d="m306.6 198.2h83.42"/><path d="m306.6 208.2h83.42"/><path d="m306.6 218.2h83.42"/><path d="m306.6 228.2h83.42"/></g><rect x="390" y="187.7" width="1" height="41" stroke-width=".3"/><path d="m320.6 238.2h18.02" fill="none"/></g><g class="vf-stavenote"><g class="vf-note" pointer-events="bounding-box"><g class="vf-stem"><path id="vf-auto1071-stem" class="vf-stem" d="m334.8 243.2v-60" fill="none" stroke="#000" stroke-width="1.5"/></g><g class="vf-notehead"><path d="m323.6 243.2m7.357-5.223h0.6459c2.527 0.1404 4.015 1.797 4.015 3.875 0 1.011-0.337 2.162-1.179 3.257-1.601 2.162-4.212 3.342-6.486 3.342-1.769 0-3.285-0.702-4.015-2.134-0.2246-0.5616-0.337-1.095-0.337-1.685 0-3.061 3.426-6.458 7.357-6.655m2.92 1.544c-0.1123-0.0562-0.2527-0.0842-0.3931-0.0842-0.8705 0-2.331 0.5335-3.735 1.488-2.611 1.629-4.746 4.015-4.83 5.391v0.0281c0 0.4774 0.3089 0.6739 0.8424 0.6739 1.151 0 3.285-0.9828 5.251-2.555 2.022-1.601 3.313-3.398 3.313-4.324 0-0.3089-0.1404-0.5616-0.4493-0.6178" stroke-width=".3"/></g><g class="vf-notehead"><path d="m323.6 228.2m7.357-5.223h0.6459c2.527 0.1404 4.015 1.797 4.015 3.875 0 1.011-0.337 2.162-1.179 3.257-1.601 2.162-4.212 3.342-6.486 3.342-1.769 0-3.285-0.702-4.015-2.134-0.2246-0.5616-0.337-1.095-0.337-1.685 0-3.061 3.426-6.458 7.357-6.655m2.92 1.544c-0.1123-0.0562-0.2527-0.0842-0.3931-0.0842-0.8705 0-2.331 0.5335-3.735 1.488-2.611 1.629-4.746 4.015-4.83 5.391v0.0281c0 0.4774 0.3089 0.6739 0.8424 0.6739 1.151 0 3.285-0.9828 5.251-2.555 2.022-1.601 3.313-3.398 3.313-4.324 0-0.3089-0.1404-0.5616-0.4493-0.6178" stroke-width=".3"/></g><g class="vf-notehead"><path d="m323.6 218.2m7.357-5.223h0.6459c2.527 0.1404 4.015 1.797 4.015 3.875 0 1.011-0.337 2.162-1.179 3.257-1.601 2.162-4.212 3.342-6.486 3.342-1.769 0-3.285-0.702-4.015-2.134-0.2246-0.5616-0.337-1.095-0.337-1.685 0-3.061 3.426-6.458 7.357-6.655m2.92 1.544c-0.1123-0.0562-0.2527-0.0842-0.3931-0.0842-0.8705 0-2.331 0.5335-3.735 1.488-2.611 1.629-4.746 4.015-4.83 5.391v0.0281c0 0.4774 0.3089 0.6739 0.8424 0.6739 1.151 0 3.285-0.9828 5.251-2.555 2.022-1.601 3.313-3.398 3.313-4.324 0-0.3089-0.1404-0.5616-0.4493-0.6178" stroke-width=".3"/></g></g><g class="vf-modifiers" stroke-width=".3"><path d="m342.6 243.2a2 2 0 0 0-4 0 2 2 0 0 0 4 0"/><path d="m342.6 223.2a2 2 0 0 0-4 0 2 2 0 0 0 4 0"/><path d="m342.6 213.2a2 2 0 0 0-4 0 2 2 0 0 0 4 0"/></g></g></g><text x="139.15295" y="300" fill="#000000" font-family="'Times New Roman'" font-size="23px" font-style="italic" font-weight="bold" stroke-width=".3">mp</text><g class="vf-line"><path d="m177.1 291 122.4-6" fill="none" stroke="#000" stroke-width="1.2"/></g><g class="vf-line"><path d="m177.1 291 122.4 6" fill="none" stroke="#000" stroke-width="1.2"/></g><text x="323.5871" y="271" fill="#000000" font-family="'Times New Roman'" font-size="23px" font-style="italic" font-weight="bold" stroke-width=".3">p</text><g class="vf-text"><text x="117.16208" y="170.2" fill="#000000" font-family="'Times New Roman'" font-size="20px" font-style="italic" stroke-width=".3">Espressivo</text></g><text x="117.16208" y="170.2" fill="#000000" font-family="'Times New Roman'" font-size="20px" font-style="italic" stroke-width=".3">Espressivo</text><g class="staffline"><g class="vf-measure"><g fill="none" stroke="#000"><path d="m50 314.8h256.6"/><path d="m50 324.8h256.6"/><path d="m50 334.8h256.6"/><path d="m50 344.8h256.6"/><path d="m50 354.8h256.6"/></g><rect x="306.6" y="314.3" width="1" height="41" stroke="#000" stroke-width=".3"/><g class="vf-clef"><path d="m55 324.8m8.842-10.05c0.2304-0.0576 0.4608-0.0576 0.72-0.0576 1.008 0 2.189 0.1152 3.197 0.3168 4.723 0.9792 7.978 4.176 8.582 8.438 0.0576 0.4608 0.0864 0.8928 0.0864 1.354 0 2.592-0.8928 5.933-2.419 8.726-3.629 6.566-10.25 11.29-18.2 13.02-0.144 0-0.2592 0.0288-0.4032 0.0288-0.288 0-0.432-0.1728-0.432-0.432 0-0.288 0.0576-0.3744 0.6336-0.6048 9.101-3.427 15.18-10.83 15.72-19.12 0.0288-0.432 0.0288-0.9216 0.0288-1.296 0-4.032-1.238-7.027-3.629-8.525-1.037-0.6624-2.16-0.9792-3.37-0.9792-2.678 0-5.414 1.526-6.682 4.09-0.0576 0.2016-0.2592 0.6336-0.2592 0.6624 0 0 0.0288-0.0288 0.1152-0.0576 0.6336-0.4032 1.325-0.6048 2.045-0.6048 1.008 0 2.074 0.432 2.822 1.238 0.6912 0.7488 1.066 1.757 1.066 2.678 0 1.872-1.382 3.773-3.542 3.974-0.144 0-0.288 0.0288-0.432 0.0288-2.39 0-4.32-2.189-4.32-4.954v-0.1728c0.1152-4.118 3.888-7.488 8.669-7.747m15.32 3.859c0.0576-0.0288 0.0864-0.0288 0.1728-0.0288 0.2016 0 0.432 0.0288 0.4896 0.0864 0.72 0.2016 1.066 0.8352 1.066 1.44 0 0.5184-0.2592 1.037-0.7776 1.325-0.2016 0.144-0.4608 0.1728-0.72 0.1728-0.4032 0-0.8352-0.1728-1.123-0.5472-0.2304-0.288-0.3456-0.6048-0.3456-0.9216 0-0.72 0.4608-1.44 1.238-1.526m0 9.418h0.1728c0.2016 0 0.432 0.0288 0.4896 0.0864 0.72 0.2016 1.066 0.8352 1.066 1.44 0 0.5184-0.2592 1.037-0.7776 1.296-0.2016 0.144-0.4608 0.2016-0.72 0.2016-0.4032 0-0.8352-0.2016-1.123-0.5472-0.2304-0.288-0.3456-0.6048-0.3456-0.9504 0-0.72 0.4608-1.411 1.238-1.526" stroke-width=".3"/></g><g class="vf-keysignature"><path d="m91 324.8m5.937-14.64c0.08208-0.0547 0.1094-0.0547 0.2189-0.0547 0.2736 0 0.4651 0.1094 0.5472 0.3557l0.02736 0.0821 0.02736 3.584v3.612l0.7114-0.1915c0.4104-0.1094 0.7114-0.1368 0.9029-0.1368 0.2462 0 0.3557 0.0821 0.4378 0.301 0.02736 0.0821 0.02736 0.7114 0.02736 1.395 0 0.6566 0 1.341-0.02736 1.368-0.1094 0.2736-0.1915 0.301-0.9302 0.4925-0.9302 0.2462-1.122 0.2736-1.122 0.2736v5.964l0.7114-0.1915c0.4378-0.1094 0.7114-0.1368 0.9029-0.1368 0.1368 0 0.2462 0.0274 0.3283 0.1368 0.1368 0.1642 0.1368 0.1368 0.1368 1.149v0.8482c0 1.012 0 0.985-0.1368 1.122-0.1094 0.1094-0.08208 0.1094-1.341 0.4104-0.2736 0.0821-0.5198 0.1642-0.5472 0.1642h-0.05472v3.639l-0.02736 3.666-0.02736 0.1094c-0.08208 0.2189-0.301 0.3283-0.5472 0.3283-0.1642 0-0.4104-0.1094-0.5198-0.3283l-0.02736-0.1094v-7.004h-0.02736l-0.6293 0.1642-1.176 0.301c-0.301 0.0821-0.5746 0.1368-0.5746 0.1368-0.05472 0-0.05472 0.1915-0.05472 3.721v3.776l-0.02736 0.0821c-0.1094 0.2189-0.3283 0.3283-0.5198 0.3283-0.2189 0-0.4651-0.1094-0.5746-0.3283l-0.02736-0.0821v-3.612c0-3.338 0-3.584-0.02736-3.584-0.301 0.0821-1.341 0.3557-1.45 0.3557-0.2462 0-0.4104-0.1642-0.5198-0.3557v-2.681l0.02736-0.1094c0.1094-0.2736 0.1094-0.2736 1.642-0.6566l0.3283-0.0821v-2.982c0-2.763 0-2.955-0.02736-2.955-0.301 0.0821-1.341 0.3283-1.45 0.3283-0.2462 0-0.4104-0.1368-0.5198-0.3283v-2.681l0.02736-0.1094c0.1094-0.2736 0.1094-0.2736 1.642-0.6566l0.3283-0.0821v-7.278l0.02736-0.1094c0.1094-0.1915 0.3557-0.3557 0.5746-0.3557 0.08208 0 0.1368 0.0547 0.2189 0.0821 0.1094 0.0274 0.2189 0.1642 0.301 0.2736l0.02736 0.1094v6.977h0.1642c0.05472-0.0274 0.5472-0.1368 1.04-0.2462l1.067-0.3283 0.1915-0.0274v-7.469l0.02736-0.0821c0.08208-0.1094 0.1642-0.2462 0.301-0.301m-0.3283 14.39v-3.01c-0.02736 0-0.301 0.0821-0.6293 0.1642l-1.204 0.301c-0.301 0.0821-0.5746 0.1368-0.5746 0.1368-0.05472 0-0.05472 0.1642-0.05472 2.982v3.01l0.1642-0.0547c0.05472-0.0274 0.5472-0.1368 1.04-0.2462l1.067-0.2736 0.1915-0.0821v-2.928" stroke-width=".3"/></g><g class="vf-timesignature" stroke-width=".3"><path d="m116.7 334.8m5.011-18.66h1.469c2.65 0.288 4.723 1.728 5.098 3.6 0.0576 0.1728 0.0576 0.3744 0.0576 0.576 0 0.2304 0 0.432-0.0576 0.5472-0.3744 1.354-1.958 2.592-3.974 3.197-0.144 0.0576-0.2016 0.0576-0.2016 0.0864 0.0288 0 0.1152 0.0288 0.2016 0.0288 2.736 1.008 4.176 2.938 4.176 4.81 0 1.44-0.8064 2.822-2.621 3.744-1.066 0.576-2.246 0.8352-3.398 0.8352-1.901 0-3.773-0.72-5.098-2.016-0.4896-0.4608-0.6624-1.037-0.6624-1.613 0-1.181 0.8352-2.304 2.218-2.304s2.16 1.066 2.16 2.16c0 0.8352-0.432 1.67-1.411 2.074 0 0.0288 0.8352 0.2016 1.267 0.2304h0.1728c1.901 0 3.226-1.354 3.226-3.226 0-0.2016 0-0.3744-0.0288-0.576-0.3168-2.102-1.728-3.658-3.37-3.715-0.4032-0.0288-0.6048-0.2016-0.6048-0.4608 0-0.3456 0.1728-0.4896 0.6048-0.4896 1.411-0.0864 2.621-1.037 3.082-2.477 0.1152-0.288 0.144-0.576 0.144-0.8064 0-1.21-0.8928-2.304-2.218-2.592-0.2016-0.0864-0.4608-0.0864-0.7488-0.0864-0.4032 0-0.7776 0.0288-1.181 0.0864l-0.1152 0.0288 0.1152 0.0864c0.7488 0.4032 1.066 1.123 1.066 1.843 0 0.9504-0.6336 1.901-1.728 2.16-0.144 0.0288-0.3168 0.0288-0.4608 0.0288-1.267 0-2.218-1.152-2.218-2.362 0-0.5184 0.1728-1.037 0.6048-1.469 1.008-1.094 2.534-1.728 4.435-1.93m0.864 18.69h0.0288-0.0864 0.0576m0-19.41h0.0288-0.0864 0.0576"/><path d="m115.8 354.8m5.011-18.35c0.0288-0.0288 0.432-0.0288 1.67-0.0288h4.205l0.0864 0.0864c0.144 0.0864 0.2304 0.2304 0.2304 0.3456 0 0.1728-0.0864 0.288-0.2016 0.4032-0.0288 0.0864-0.288 0.3168-0.4608 0.576l-1.526 1.757-1.958 2.218-1.037 1.181-1.555 1.786-2.045 2.333c-0.3456 0.432-0.72 0.7776-0.72 0.7776 0 0.0576 0.2592 0.0576 2.65 0.0576h2.621v-1.872c0-1.901 0-1.93 0.0288-1.958 0.0576-0.0864 0.3168-0.4032 1.325-1.584l0.8064-0.864 0.6048-0.7776 0.6336-0.6624 0.3168-0.4032c0.1152-0.1728 0.288-0.2016 0.432-0.2016 0.1728 0 0.3168 0.0864 0.4032 0.2304 0.0288 0.0864 0.0288 0.144 0.0288 2.275v5.817h0.72c0.6624 0 0.6912 0 0.7776 0.0288 0.2304 0.0864 0.3456 0.3168 0.3456 0.576 0 0.144-0.0288 0.3168-0.144 0.432-0.1728 0.144-0.2016 0.144-0.9792 0.144h-0.72v0.4896c0.0288 1.469 0.3168 2.045 1.44 2.65 0.4032 0.2016 0.4896 0.2592 0.4896 0.5472 0 0.2016-0.0576 0.288-0.2016 0.4032l-0.0864 0.0288h-7.862l-0.0864-0.0288c-0.1728-0.1152-0.2016-0.2016-0.2016-0.4032 0-0.288 0.0288-0.3456 0.4608-0.5472 1.123-0.6048 1.411-1.181 1.411-2.65v-0.4896h-3.312c-0.6048 0.0576-1.094 0.0576-1.498 0.0576-1.814 0-1.843-0.0576-1.872-0.0576-0.1728-0.0576-0.2304-0.2304-0.2304-0.432s0-0.2016 0.576-0.864c2.419-2.938 4.118-7.2 4.118-10.6 0-0.5184 0.0864-0.6912 0.3168-0.7776m1.728 18.37h0.0288-0.0864 0.0576m0-19.41h0.0288-0.0864 0.0576"/></g><g class="vf-stavenote"><g class="vf-note" pointer-events="bounding-box"><g class="vf-stem"><path id="vf-auto1056-stem" class="vf-stem" d="m154.9 334.8v35" fill="none" stroke="#000" stroke-width="1.5"/></g><g class="vf-notehead"><path d="m154.2 334.8m7.357-5.223h0.6459c2.527 0.1404 4.015 1.797 4.015 3.875 0 1.011-0.337 2.162-1.179 3.257-1.601 2.162-4.212 3.342-6.486 3.342-1.769 0-3.285-0.702-4.015-2.134-0.2246-0.5616-0.337-1.095-0.337-1.685 0-3.061 3.426-6.458 7.357-6.655m2.92 1.544c-0.1123-0.0562-0.2527-0.0842-0.3931-0.0842-0.8705 0-2.331 0.5335-3.735 1.488-2.611 1.629-4.746 4.015-4.83 5.391v0.0281c0 0.4774 0.3089 0.6739 0.8424 0.6739 1.151 0 3.285-0.9828 5.251-2.555 2.022-1.601 3.313-3.398 3.313-4.324 0-0.3089-0.1404-0.5616-0.4493-0.6178" stroke-width=".3"/></g></g><g class="vf-modifiers"><path d="m142.3 334.8m5.937-14.64c0.0821-0.0547 0.1094-0.0547 0.2189-0.0547 0.2736 0 0.4651 0.1094 0.5472 0.3557l0.0274 0.0821 0.0274 3.584v3.612l0.7114-0.1915c0.4104-0.1094 0.7114-0.1368 0.9029-0.1368 0.2462 0 0.3557 0.0821 0.4378 0.301 0.0274 0.0821 0.0274 0.7114 0.0274 1.395 0 0.6566 0 1.341-0.0274 1.368-0.1094 0.2736-0.1915 0.301-0.9302 0.4925-0.9302 0.2462-1.122 0.2736-1.122 0.2736v5.964l0.7114-0.1915c0.4378-0.1094 0.7114-0.1368 0.9029-0.1368 0.1368 0 0.2462 0.0274 0.3283 0.1368 0.1368 0.1642 0.1368 0.1368 0.1368 1.149v0.8482c0 1.012 0 0.985-0.1368 1.122-0.1094 0.1094-0.0821 0.1094-1.341 0.4104-0.2736 0.0821-0.5198 0.1642-0.5472 0.1642h-0.0547v3.639l-0.0274 3.666-0.0274 0.1094c-0.0821 0.2189-0.301 0.3283-0.5472 0.3283-0.1642 0-0.4104-0.1094-0.5198-0.3283l-0.0274-0.1094v-7.004h-0.0274l-0.6293 0.1642-1.176 0.301c-0.301 0.0821-0.5746 0.1368-0.5746 0.1368-0.0547 0-0.0547 0.1915-0.0547 3.721v3.776l-0.0274 0.0821c-0.1094 0.2189-0.3283 0.3283-0.5198 0.3283-0.2189 0-0.4651-0.1094-0.5746-0.3283l-0.0274-0.0821v-3.612c0-3.338 0-3.584-0.0274-3.584-0.301 0.0821-1.341 0.3557-1.45 0.3557-0.2462 0-0.4104-0.1642-0.5198-0.3557v-2.681l0.0274-0.1094c0.1094-0.2736 0.1094-0.2736 1.642-0.6566l0.3283-0.0821v-2.982c0-2.763 0-2.955-0.0274-2.955-0.301 0.0821-1.341 0.3283-1.45 0.3283-0.2462 0-0.4104-0.1368-0.5198-0.3283v-2.681l0.0274-0.1094c0.1094-0.2736 0.1094-0.2736 1.642-0.6566l0.3283-0.0821v-7.278l0.0274-0.1094c0.1094-0.1915 0.3557-0.3557 0.5746-0.3557 0.0821 0 0.1368 0.0547 0.2189 0.0821 0.1094 0.0274 0.2189 0.1642 0.301 0.2736l0.0274 0.1094v6.977h0.1642c0.0547-0.0274 0.5472-0.1368 1.04-0.2462l1.067-0.3283 0.1915-0.0274v-7.469l0.0274-0.0821c0.0821-0.1094 0.1642-0.2462 0.301-0.301m-0.3283 14.39v-3.01c-0.0274 0-0.301 0.0821-0.6293 0.1642l-1.204 0.301c-0.301 0.0821-0.5746 0.1368-0.5746 0.1368-0.0547 0-0.0547 0.1642-0.0547 2.982v3.01l0.1642-0.0547c0.0547-0.0274 0.5472-0.1368 1.04-0.2462l1.067-0.2736 0.1915-0.0821v-2.928" stroke-width=".3"/></g></g><g class="vf-stavenote"><g class="vf-note" pointer-events="bounding-box"><g class="vf-stem"><path id="vf-auto1064-stem" class="vf-stem" d="m261.7 324.8v35" fill="none" stroke="#000" stroke-width="1.5"/></g><g class="vf-notehead"><path d="m261 324.8m7.357-5.223h0.6459c2.527 0.1404 4.015 1.797 4.015 3.875 0 1.011-0.337 2.162-1.179 3.257-1.601 2.162-4.212 3.342-6.486 3.342-1.769 0-3.285-0.702-4.015-2.134-0.2246-0.5616-0.337-1.095-0.337-1.685 0-3.061 3.426-6.458 7.357-6.655" stroke-width=".3"/></g></g></g></g><g class="vf-connector"><rect x="306.6" y="188.2" width="1" height="167.6" stroke="#000" stroke-width=".3"/></g><g class="vf-connector"><rect x="50" y="188.2" width="1" height="167.6" stroke="#000" stroke-width=".3"/></g><g class="vf-measure"><g stroke="#000"><g fill="none"><path d="m306.6 314.8h83.42"/><path d="m306.6 324.8h83.42"/><path d="m306.6 334.8h83.42"/><path d="m306.6 344.8h83.42"/><path d="m306.6 354.8h83.42"/></g><rect x="390" y="314.3" width="1" height="41" stroke-width=".3"/><path d="m320.6 364.8h18.02" fill="none"/></g><g class="vf-stavenote"><g class="vf-note" pointer-events="bounding-box"><g class="vf-stem"><path id="vf-auto1095-stem" class="vf-stem" d="m334.8 364.8v-70" fill="none" stroke="#000" stroke-width="1.5"/></g><g class="vf-notehead"><path d="m323.6 364.8m7.357-5.223h0.6459c2.527 0.1404 4.015 1.797 4.015 3.875 0 1.011-0.337 2.162-1.179 3.257-1.601 2.162-4.212 3.342-6.486 3.342-1.769 0-3.285-0.702-4.015-2.134-0.2246-0.5616-0.337-1.095-0.337-1.685 0-3.061 3.426-6.458 7.357-6.655m2.92 1.544c-0.1123-0.0562-0.2527-0.0842-0.3931-0.0842-0.8705 0-2.331 0.5335-3.735 1.488-2.611 1.629-4.746 4.015-4.83 5.391v0.0281c0 0.4774 0.3089 0.6739 0.8424 0.6739 1.151 0 3.285-0.9828 5.251-2.555 2.022-1.601 3.313-3.398 3.313-4.324 0-0.3089-0.1404-0.5616-0.4493-0.6178" stroke-width=".3"/></g><g class="vf-notehead"><path d="m323.6 329.8m7.357-5.223h0.6459c2.527 0.1404 4.015 1.797 4.015 3.875 0 1.011-0.337 2.162-1.179 3.257-1.601 2.162-4.212 3.342-6.486 3.342-1.769 0-3.285-0.702-4.015-2.134-0.2246-0.5616-0.337-1.095-0.337-1.685 0-3.061 3.426-6.458 7.357-6.655m2.92 1.544c-0.1123-0.0562-0.2527-0.0842-0.3931-0.0842-0.8705 0-2.331 0.5335-3.735 1.488-2.611 1.629-4.746 4.015-4.83 5.391v0.0281c0 0.4774 0.3089 0.6739 0.8424 0.6739 1.151 0 3.285-0.9828 5.251-2.555 2.022-1.601 3.313-3.398 3.313-4.324 0-0.3089-0.1404-0.5616-0.4493-0.6178" stroke-width=".3"/></g></g><g class="vf-modifiers" stroke-width=".3"><path d="m342.6 359.8a2 2 0 0 0-4 0 2 2 0 0 0 4 0"/><path d="m342.6 329.8a2 2 0 0 0-4 0 2 2 0 0 0 4 0"/></g></g></g><g class="vf-connector"><rect x="390" y="188.2" width="1" height="167.6" stroke="#000" stroke-width=".3"/></g></g><g class="vf-brace"><path d="m48 188.2c-22.8 33.52 13.2 61.17-12 83.8 25.2 22.63-10.8 50.28 12 83.8-24-33.52 4.8-61.17-12-83.8 16.8-22.63-12-50.28 12-83.8" stroke-width=".3"/><path d="m48 188.2c-22.8 33.52 13.2 61.17-12 83.8 25.2 22.63-10.8 50.28 12 83.8-24-33.52 4.8-61.17-12-83.8 16.8-22.63-12-50.28 12-83.8" fill="none" stroke="#000"/></g><text x="37" y="82" fill="#000000" font-family="'Times New Roman'" font-size="40px" stroke-width=".3">A MusicXML Tutorial</text></svg>
